<?xml version="1.0" standalone="no"?>
<!DOCTYPE svg PUBLIC "-//W3C//DTD SVG 20010904//EN"
 "http://www.w3.org/TR/2001/REC-SVG-20010904/DTD/svg10.dtd">
<svg version="1.0" xmlns="http://www.w3.org/2000/svg"
 width="1024.000000pt" height="1024.000000pt" viewBox="0 0 1024.000000 1024.000000"
 preserveAspectRatio="xMidYMid meet">
<metadata>
Created by potrace 1.16, written by Peter Selinger 2001-2019
</metadata>
<g transform="translate(0.000000,1024.000000) scale(0.100000,-0.100000)"
fill="#000000" stroke="none">
<path d="M4108 8990 c-281 -51 -506 -240 -581 -487 -17 -57 -25 -72 -37 -66
-30 13 -175 15 -229 3 -174 -39 -329 -178 -392 -352 -21 -56 -23 -58 -58 -58
-195 -2 -370 -161 -401 -366 -8 -48 -10 -448 -7 -1270 3 -1071 6 -1208 21
-1284 104 -528 410 -988 896 -1347 186 -137 398 -266 988 -602 522 -297 531
-300 783 -308 243 -8 365 22 564 137 863 499 1105 646 1298 788 473 350 788
837 872 1347 13 76 15 282 15 1322 0 1219 0 1233 -21 1287 -14 40 -35 68 -71
101 -28 25 -58 45 -66 43 -13 -3 -15 -129 -13 -1039 l1 -1036 -132 -7 c-512
-26 -1005 -111 -1443 -248 -251 -78 -623 -232 -818 -339 l-59 -31 4 228 c3
224 4 230 30 287 45 97 187 227 248 227 54 0 278 53 355 84 289 117 519 378
611 696 26 90 54 243 54 299 l0 34 -142 -6 c-323 -15 -519 -96 -718 -297 -159
-160 -267 -336 -369 -599 -32 -83 -61 -154 -65 -158 -3 -3 -6 83 -6 193 l0
199 81 115 c150 213 193 332 194 530 0 104 -4 138 -23 200 -33 106 -91 213
-167 307 -64 80 -162 173 -182 173 -20 0 -144 -123 -203 -202 -111 -147 -166
-286 -177 -443 -12 -182 48 -350 201 -566 l75 -105 3 -202 c2 -111 1 -202 -2
-202 -3 0 -25 53 -49 118 -88 237 -161 375 -279 528 -224 290 -485 414 -874
414 l-88 0 0 -37 c0 -59 27 -210 54 -304 81 -278 255 -502 496 -637 83 -46
220 -89 369 -116 118 -21 140 -29 188 -62 65 -45 116 -101 151 -169 28 -55 30
-69 35 -430 l2 -180 -100 63 c-230 145 -642 329 -940 421 -345 106 -875 196
-1278 217 l-127 7 2 931 c3 872 4 934 21 971 24 53 72 103 122 126 46 21 114
25 119 7 31 -107 87 -182 170 -226 l51 -27 819 -3 820 -2 43 42 c24 23 41 49
38 56 -2 7 -1 11 3 8 5 -3 29 15 53 40 60 62 182 160 230 184 21 11 49 20 62
20 39 0 143 -76 246 -179 l94 -95 40 45 c86 96 134 245 122 373 -21 221 -171
398 -390 461 -73 22 -243 17 -292 -7 l-31 -15 -41 82 c-44 90 -149 212 -228
266 -64 45 -171 95 -239 113 -70 20 -240 28 -306 16z m-1327 -3390 c548 -42
1075 -162 1504 -342 185 -77 476 -226 548 -280 17 -13 11 -18 -70 -66 -89 -53
-295 -201 -307 -221 -4 -6 -32 8 -74 39 -235 170 -610 355 -952 470 -207 69
-499 135 -752 170 l-87 12 -3 114 -3 114 31 0 c16 0 91 -5 165 -10z m4884 -50
c0 -59 -1 -60 -30 -65 -16 -2 -79 -12 -140 -21 -775 -113 -1487 -403 -2105
-857 -386 -283 -794 -707 -1054 -1095 -37 -56 -71 -102 -75 -102 -6 0 -462
257 -470 265 -5 5 157 211 255 325 484 563 1199 1037 1989 1322 434 156 1086
275 1570 287 l60 1 0 -60z m-6 -307 c-4 -32 -8 -66 -8 -75 -1 -11 -12 -20 -28
-24 -41 -10 -279 -98 -421 -155 -511 -206 -1014 -528 -1408 -901 -315 -298
-554 -600 -810 -1024 -9 -16 -15 -16 -60 -4 -90 25 -178 66 -321 151 l-142 85
66 94 c289 415 656 800 1014 1062 478 352 1035 613 1592 748 146 35 395 83
487 93 19 2 37 5 41 5 3 1 2 -24 -2 -55z m-4877 -92 c436 -74 844 -219 1233
-439 85 -48 243 -150 250 -162 2 -4 -69 -82 -159 -173 l-164 -166 -89 72
c-274 223 -671 428 -1058 547 l-120 38 -17 50 c-26 75 -66 262 -57 262 4 0 86
-13 181 -29z m4797 -268 c-59 -164 -195 -408 -292 -528 -167 -205 -318 -340
-542 -490 -150 -100 -549 -343 -810 -494 -88 -51 -200 -117 -250 -148 -137
-83 -281 -149 -368 -168 -43 -10 -80 -16 -82 -13 -5 4 134 210 225 333 201
272 537 625 778 817 360 287 787 526 1272 714 47 18 86 33 87 34 2 0 -7 -26
-18 -57z m-4674 -308 c279 -114 479 -217 645 -333 67 -47 250 -192 250 -198 0
-4 -114 -146 -166 -207 -37 -44 -36 -44 -129 21 -260 182 -462 379 -602 588
-94 139 -116 177 -102 171 8 -3 55 -22 104 -42z"/>
<path d="M6444 2600 c-40 -16 -64 -59 -64 -112 0 -43 4 -54 34 -84 30 -30 40
-34 85 -34 93 0 131 37 131 126 0 39 -5 51 -34 80 -30 30 -40 34 -82 33 -27 0
-59 -4 -70 -9z"/>
<path d="M6005 2588 c-3 -7 -4 -263 -3 -568 l3 -555 108 -3 107 -3 0 561 c0
308 1 563 3 568 1 4 -46 8 -106 10 -80 2 -109 -1 -112 -10z"/>
<path d="M5345 2570 c-124 -25 -252 -101 -328 -196 -87 -107 -127 -224 -127
-366 0 -248 139 -448 367 -529 82 -29 263 -37 357 -15 71 17 174 62 213 93
l21 18 -30 75 c-16 41 -33 79 -38 83 -4 5 -41 -7 -81 -26 -97 -46 -165 -61
-253 -55 -94 7 -163 37 -221 99 -75 80 -90 124 -90 259 0 135 15 179 89 258
101 108 251 137 414 81 30 -11 71 -28 90 -39 18 -11 37 -18 41 -15 4 2 18 43
31 91 l24 87 -23 18 c-80 65 -319 106 -456 79z"/>
<path d="M1666 2552 c-3 -5 -87 -232 -186 -503 -99 -272 -187 -511 -196 -532
-8 -21 -12 -43 -9 -48 4 -5 57 -9 120 -9 l114 0 38 115 37 115 212 0 212 0 22
-62 c13 -35 32 -87 42 -115 l19 -53 119 0 c65 0 121 3 123 8 4 6 -126 354
-329 882 l-79 205 -127 3 c-70 1 -129 -1 -132 -6z m206 -465 c37 -109 68 -200
68 -203 0 -2 -66 -4 -146 -4 -113 0 -145 3 -142 13 3 6 36 104 73 217 38 113
71 198 73 190 3 -8 36 -104 74 -213z"/>
<path d="M2623 2265 c-142 -44 -231 -154 -256 -316 -12 -81 1 -183 33 -256 27
-61 110 -145 177 -179 53 -26 67 -29 158 -29 92 0 104 2 153 30 30 16 62 39
72 52 28 36 33 28 26 -39 -10 -90 -36 -141 -87 -175 -36 -24 -54 -29 -127 -32
-94 -4 -172 18 -249 70 l-43 28 -11 -42 c-6 -23 -17 -66 -26 -96 -18 -63 -14
-69 64 -100 135 -53 345 -65 453 -27 106 38 193 134 230 252 18 59 19 96 20
456 l2 393 -101 3 -101 3 0 -46 c0 -25 -2 -45 -4 -45 -2 0 -20 15 -40 34 -52
50 -130 76 -224 75 -42 0 -96 -6 -119 -14z m267 -185 c129 -66 148 -264 34
-359 -89 -72 -211 -66 -285 16 -40 44 -52 84 -47 166 4 91 34 143 100 176 57
28 144 28 198 1z"/>
<path d="M3724 2266 c-41 -18 -101 -72 -122 -110 l-17 -31 -5 65 -5 65 -102 0
c-57 0 -103 -3 -103 -7 0 -5 0 -183 0 -398 l0 -390 104 0 c74 0 105 4 108 13
3 6 6 105 7 220 1 114 6 221 11 239 16 55 53 98 107 124 43 22 63 25 115 23
l63 -4 3 94 c2 69 -1 97 -10 103 -20 12 -120 9 -154 -6z"/>
<path d="M4198 2256 c-78 -28 -109 -48 -167 -111 -177 -192 -121 -531 105
-644 155 -78 361 -67 494 26 120 84 177 207 168 363 -11 184 -114 317 -289
371 -89 28 -224 26 -311 -5z m288 -192 c53 -43 76 -93 82 -179 6 -90 -15 -159
-61 -203 -104 -101 -261 -76 -330 53 -18 32 -22 57 -22 131 0 84 2 94 30 140
46 73 91 95 187 92 68 -3 80 -6 114 -34z"/>
<path d="M7123 2264 c-23 -9 -60 -33 -82 -55 -23 -21 -43 -39 -46 -39 -3 0 -5
20 -5 45 l0 45 -105 0 -105 0 0 -400 0 -401 108 3 107 3 5 272 5 271 25 27
c37 40 75 56 131 57 55 0 89 -17 116 -59 16 -24 19 -61 23 -298 l5 -270 99 -3
c73 -2 102 1 108 10 4 7 8 126 8 264 0 244 1 252 23 284 37 55 71 74 131 74
57 0 95 -18 121 -58 24 -35 36 -187 33 -391 l-2 -180 107 -3 108 -3 -3 308
c-3 300 -4 309 -27 361 -28 62 -93 124 -149 140 -56 17 -170 15 -226 -4 -46
-16 -110 -68 -135 -109 -12 -20 -12 -20 -24 0 -28 47 -94 103 -132 114 -55 15
-172 12 -222 -5z"/>
<path d="M8370 2264 c-30 -8 -78 -26 -107 -39 l-52 -24 15 -52 c27 -91 33
-102 52 -96 9 3 46 17 81 32 47 20 80 27 130 27 114 0 167 -36 178 -122 l6
-40 -122 0 c-212 0 -314 -39 -371 -140 -20 -37 -25 -59 -25 -120 0 -64 4 -82
28 -122 15 -26 41 -57 58 -69 97 -69 297 -64 390 10 l38 31 3 -38 3 -37 105 0
105 0 0 295 0 295 -26 55 c-33 70 -70 106 -139 139 -48 22 -70 26 -175 28 -84
2 -137 -2 -175 -13z m302 -499 c-4 -62 -25 -97 -73 -124 -74 -42 -191 -36
-224 12 -31 44 -13 111 38 139 18 10 196 27 247 24 12 -1 14 -12 12 -51z"/>
<path d="M6406 2262 c-3 -3 -6 -185 -6 -404 l0 -398 105 0 105 0 -2 403 -3
402 -97 2 c-53 0 -99 -1 -102 -5z"/>
</g>
</svg>
